<svg width="256" height="256" viewBox="0 0 256 256" fill="none" xmlns="http://www.w3.org/2000/svg">
  <defs>
    <linearGradient id="bg" x1="40" y1="24" x2="212" y2="232" gradientUnits="userSpaceOnUse">
      <stop stop-color="#F59E0B"/>
      <stop offset="0.5" stop-color="#F97316"/>
      <stop offset="1" stop-color="#EF4444"/>
    </linearGradient>
    <linearGradient id="sheet" x1="78" y1="44" x2="186" y2="196" gradientUnits="userSpaceOnUse">
      <stop stop-color="#FFFDF8"/>
      <stop offset="1" stop-color="#FFF1E6"/>
    </linearGradient>
  </defs>

  <rect x="20" y="20" width="216" height="216" rx="56" fill="url(#bg)"/>
  <rect x="68" y="40" width="120" height="160" rx="24" fill="url(#sheet)"/>
  <path d="M154 40V76C154 82.6274 159.373 88 166 88H188" fill="#FFD7BF"/>
  <path d="M154 40V76C154 82.6274 159.373 88 166 88H188" stroke="#F4A261" stroke-width="8" stroke-linejoin="round"/>
  <path d="M152 40L188 76" stroke="#F4A261" stroke-width="8" stroke-linecap="round"/>
  <rect x="88" y="104" width="80" height="12" rx="6" fill="#F59E0B"/>
  <rect x="88" y="128" width="62" height="12" rx="6" fill="#FDBA74"/>
  <path d="M86 178V144H98.5C108.5 144 115.5 151 115.5 161C115.5 171 108.5 178 98.5 178H86Z" fill="#9A3412"/>
  <path d="M128.5 178C118.2 178 111 170.7 111 161C111 151.3 118.2 144 128.5 144C138.8 144 146 151.3 146 161C146 170.7 138.8 178 128.5 178Z" fill="#C2410C"/>
  <path d="M154 178V144H167C177.2 144 184 150.8 184 161C184 171.2 177.2 178 167 178H154Z" fill="#EA580C"/>
  <path d="M97 154H98.5C102.6 154 105.5 156.9 105.5 161C105.5 165.1 102.6 168 98.5 168H97V154Z" fill="#FFF7ED"/>
  <path d="M128.5 154C124.6 154 121.5 157.1 121.5 161C121.5 164.9 124.6 168 128.5 168C132.4 168 135.5 164.9 135.5 161C135.5 157.1 132.4 154 128.5 154Z" fill="#FFF7ED"/>
  <path d="M165 154H167C171.1 154 174 156.9 174 161C174 165.1 171.1 168 167 168H165V154Z" fill="#FFF7ED"/>
</svg>
